<?xml version="1.0" encoding="UTF-8" standalone="no"?>
<svg xmlns="http://www.w3.org/2000/svg" xmlns:xlink="http://www.w3.org/1999/xlink" focusable="true" height="445.0" id="workspace" preserveAspectRatio="xMinYMin" viewBox="-441.0 -219.0 952.0 445.0" width="952.0">
<path d="M-224,-104 C-233,-104 -244,-104 -253,-104" fill="#495879" fill-opacity="1" stroke="#495879" stroke-opacity="1" stroke-width="1px" style="fill:none " visibility="visible"/>
<rect fill="#CC0033" fill-opacity="0.4" height="19" rx="0" ry="0" stroke="#FF9933" stroke-opacity="0.4" stroke-width="1px" visibility="hidden" width="38" x="-225" y="-121"/>
<path d="M-268,-162 C-253.33333333333334,-142.66666666666669 -238.66666666666666,-123.33333333333331 -224,-104" fill-opacity="0.4" stroke="#CC0033" stroke-opacity="0.4" stroke-width="1px" style="fill:none " visibility="hidden"/>
<path d="M-103,-128 C-68.66666666666666,-85.33333333333333 -34.333333333333336,-42.666666666666664 0,0" fill-opacity="0.4" stroke="#CC0033" stroke-opacity="0.4" stroke-width="1px" style="fill:none " visibility="hidden"/>
<path d="M-224,-104 C-233,-104 -243,-129 -252,-129" fill="#495879" fill-opacity="1" stroke="#495879" stroke-opacity="1" stroke-width="1px" style="fill:none " visibility="visible"/>
<path d="M-294,133 C-303,133 -314,145 -323,145" fill="#495879" fill-opacity="1" stroke="#495879" stroke-opacity="1" stroke-width="1px" style="fill:none " visibility="visible"/>
<path d="M-294,133 C-303,133 -314,120 -323,120" fill="#495879" fill-opacity="1" stroke="#495879" stroke-opacity="1" stroke-width="1px" style="fill:none " visibility="visible"/>
<path d="M-314,71 C-323,71 -334,95 -343,95" fill="#495879" fill-opacity="1" stroke="#495879" stroke-opacity="1" stroke-width="1px" style="fill:none " visibility="visible"/>
<path d="M-314,71 C-323,71 -333,70 -342,70" fill="#495879" fill-opacity="1" stroke="#495879" stroke-opacity="1" stroke-width="1px" style="fill:none " visibility="visible"/>
<path d="M-314,71 C-323,71 -333,45 -342,45" fill="#495879" fill-opacity="1" stroke="#495879" stroke-opacity="1" stroke-width="1px" style="fill:none " visibility="visible"/>
<path d="M0,0 C-31,0 -64,75 -95,75 -64,78 -31,5 0,7 Z" fill="#495879" fill-opacity="1" stroke="#495879" stroke-opacity="1" stroke-width="1px" style="fill:#495879 " visibility="visible"/>
<path d="M-204,75 C-213,75 -223,132 -232,132" fill="#495879" fill-opacity="1" stroke="#495879" stroke-opacity="1" stroke-width="1px" style="fill:none " visibility="visible"/>
<path d="M-204,75 C-213,75 -224,70 -233,70" fill="#495879" fill-opacity="1" stroke="#495879" stroke-opacity="1" stroke-width="1px" style="fill:none " visibility="visible"/>
<path d="M-204,75 C-213,75 -224,20 -233,20" fill="#495879" fill-opacity="1" stroke="#495879" stroke-opacity="1" stroke-width="1px" style="fill:none " visibility="visible"/>
<path d="M-148,-25 C-158,-25 -168,-4 -178,-4" fill="#495879" fill-opacity="1" stroke="#495879" stroke-opacity="1" stroke-width="1px" style="fill:none " visibility="visible"/>
<path d="M-148,-25 C-157,-25 -168,-29 -177,-29" fill="#495879" fill-opacity="1" stroke="#495879" stroke-opacity="1" stroke-width="1px" style="fill:none " visibility="visible"/>
<path d="M0,0 C-31,0 -63,-25 -94,-25 -63,-22 -31,5 0,7 Z" fill="#495879" fill-opacity="1" stroke="#495879" stroke-opacity="1" stroke-width="1px" style="fill:#495879 " visibility="visible"/>
<path d="M-160,-100 C-169,-100 -179,-54 -188,-54" fill="#495879" fill-opacity="1" stroke="#495879" stroke-opacity="1" stroke-width="1px" style="fill:none " visibility="visible"/>
<path d="M-224,-104 C-233,-104 -243,-79 -252,-79" fill="#495879" fill-opacity="1" stroke="#495879" stroke-opacity="1" stroke-width="1px" style="fill:none " visibility="visible"/>
<path d="M-160,-100 C-169,-100 -180,-104 -189,-104" fill="#495879" fill-opacity="1" stroke="#495879" stroke-opacity="1" stroke-width="1px" style="fill:none " visibility="visible"/>
<path d="M0,0 C-31,0 -64,-100 -95,-100 -64,-97 -31,5 0,7 Z" fill="#495879" fill-opacity="1" stroke="#495879" stroke-opacity="1" stroke-width="1px" style="fill:#495879 " visibility="visible"/>
<path d="M272,150 C281,150 292,170 301,170" fill="#495879" fill-opacity="1" stroke="#495879" stroke-opacity="1" stroke-width="1px" style="fill:none " visibility="visible"/>
<path d="M366,146 C375,146 385,145 394,145" fill="#495879" fill-opacity="1" stroke="#495879" stroke-opacity="1" stroke-width="1px" style="fill:none " visibility="visible"/>
<path d="M272,150 C281,150 292,145 301,145" fill="#495879" fill-opacity="1" stroke="#495879" stroke-opacity="1" stroke-width="1px" style="fill:none " visibility="visible"/>
<path d="M180,0 C190,0 201,150 211,150" fill="#495879" fill-opacity="1" stroke="#495879" stroke-opacity="1" stroke-width="1px" style="fill:none " visibility="visible"/>
<path d="M254,100 C263,100 274,120 283,120" fill="#495879" fill-opacity="1" stroke="#495879" stroke-opacity="1" stroke-width="1px" style="fill:none " visibility="visible"/>
<path d="M254,100 C263,100 274,95 283,95" fill="#495879" fill-opacity="1" stroke="#495879" stroke-opacity="1" stroke-width="1px" style="fill:none " visibility="visible"/>
<path d="M180,0 C190,0 201,100 211,100" fill="#495879" fill-opacity="1" stroke="#495879" stroke-opacity="1" stroke-width="1px" style="fill:none " visibility="visible"/>
<path d="M344,46 C353,46 364,70 373,70" fill="#495879" fill-opacity="1" stroke="#495879" stroke-opacity="1" stroke-width="1px" style="fill:none " visibility="visible"/>
<path d="M344,46 C353,46 364,45 373,45" fill="#495879" fill-opacity="1" stroke="#495879" stroke-opacity="1" stroke-width="1px" style="fill:none " visibility="visible"/>
<path d="M344,46 C353,46 364,20 373,20" fill="#495879" fill-opacity="1" stroke="#495879" stroke-opacity="1" stroke-width="1px" style="fill:none " visibility="visible"/>
<path d="M258,-50 C267,-50 278,45 287,45" fill="#495879" fill-opacity="1" stroke="#495879" stroke-opacity="1" stroke-width="1px" style="fill:none " visibility="visible"/>
<path d="M320,-4 C329,-4 340,-4 349,-4" fill="#495879" fill-opacity="1" stroke="#495879" stroke-opacity="1" stroke-width="1px" style="fill:none " visibility="visible"/>
<path d="M258,-50 C267,-50 278,-4 287,-4" fill="#495879" fill-opacity="1" stroke="#495879" stroke-opacity="1" stroke-width="1px" style="fill:none " visibility="visible"/>
<path d="M316,-42 C325,-42 335,-29 344,-29" fill="#495879" fill-opacity="1" stroke="#495879" stroke-opacity="1" stroke-width="1px" style="fill:none " visibility="visible"/>
<path d="M316,-42 C325,-42 335,-54 344,-54" fill="#495879" fill-opacity="1" stroke="#495879" stroke-opacity="1" stroke-width="1px" style="fill:none " visibility="visible"/>
<path d="M258,-50 C267,-50 278,-42 287,-42" fill="#495879" fill-opacity="1" stroke="#495879" stroke-opacity="1" stroke-width="1px" style="fill:none " visibility="visible"/>
<path d="M364,-117 C373,-117 384,-79 393,-79" fill="#495879" fill-opacity="1" stroke="#495879" stroke-opacity="1" stroke-width="1px" style="fill:none " visibility="visible"/>
<path d="M364,-117 C373,-117 384,-104 393,-104" fill="#495879" fill-opacity="1" stroke="#495879" stroke-opacity="1" stroke-width="1px" style="fill:none " visibility="visible"/>
<path d="M364,-117 C373,-117 384,-129 393,-129" fill="#495879" fill-opacity="1" stroke="#495879" stroke-opacity="1" stroke-width="1px" style="fill:none " visibility="visible"/>
<path d="M364,-117 C373,-117 384,-154 393,-154" fill="#495879" fill-opacity="1" stroke="#495879" stroke-opacity="1" stroke-width="1px" style="fill:none " visibility="visible"/>
<path d="M258,-50 C267,-50 278,-117 287,-117" fill="#495879" fill-opacity="1" stroke="#495879" stroke-opacity="1" stroke-width="1px" style="fill:none " visibility="visible"/>
<path d="M180,0 C190,0 201,-50 211,-50" fill="#495879" fill-opacity="1" stroke="#495879" stroke-opacity="1" stroke-width="1px" style="fill:none " visibility="visible"/>
<path d="M0,0 C31,0 64,0 95,0 64,3 31,5 0,7 Z" fill="#495879" fill-opacity="1" stroke="#495879" stroke-opacity="1" stroke-width="1px" style="fill:#495879 " visibility="visible"/>
<g focusable="true" height="100" preserveAspectRatio="none" transform="translate(-63,-19) scale(1,1)" visibility="visible" width="100">
<rect fill="rgb(252,235,192)" fill-opacity="0" height="45" rx="6.75" ry="6.75" stroke="rgb(241,163,39)" stroke-opacity="0" stroke-width="1px" style="cursor: default;" width="130" x="-2" y="-3"/>
<rect fill="rgb(255, 217, 102)" height="39" rx="5.85" ry="5.85" stroke="rgb(254, 255, 255)" stroke-width="2px" style="cursor: default;" width="126" x="0" y="0"/>
<text fill="rgb(0, 0, 0)" font-family="verdana" font-size="13.4375" font-style="normal" font-weight="bold" style="cursor: default;" visibility="visible" x="11" y="11">
<tspan dy="1em" x="11">Compétences</tspan>
</text>
<g focusable="true" height="17" preserveAspectRatio="none" transform="translate(0,11) scale(0,0.17)" width="0"/>
</g>
<g focusable="true" height="100" preserveAspectRatio="none" transform="translate(93,-9) scale(1,1)" visibility="visible" width="100">
<rect fill="rgb(252,235,192)" fill-opacity="0" height="24" rx="3.5999999999999996" ry="3.5999999999999996" stroke="rgb(241,163,39)" stroke-opacity="0" stroke-width="1px" width="90" x="-2" y="-3"/>
<rect fill="rgb(255, 217, 102)" height="18" rx="2.6999999999999997" ry="2.6999999999999997" stroke="rgb(254, 255, 255)" stroke-width="2px" style="cursor: move;" width="86" x="0" y="0"/>
<text fill="rgb(82,92,97)" font-family="verdana" font-size="10.75" font-style="normal" font-weight="bold" style="cursor: move;" visibility="visible" x="3" y="3">
<tspan dy="1em" x="3">Informatique</tspan>
</text>
<ellipse cx="89" cy="9" fill="rgb(255, 217, 102)" height="6" rx="3" ry="3" stroke="rgb(254, 255, 255)" stroke-width="1px" style="cursor: default;" visibility="visible" width="6"/>
<g focusable="true" height="12" preserveAspectRatio="none" transform="translate(0,3) scale(0,0.12)" width="0"/>
</g>
<g focusable="true" height="100" preserveAspectRatio="none" transform="translate(209,-57) scale(1,1)" visibility="visible" width="100">
<rect fill="rgb(252,235,192)" fill-opacity="0" height="21" rx="3.15" ry="3.15" stroke="rgb(241,163,39)" stroke-opacity="0" stroke-width="1px" width="52" x="-2" y="-3"/>
<rect fill="rgb(204, 204, 204)" height="15" rx="6.75" ry="6.75" stroke="rgb(254, 255, 255)" stroke-width="2px" style="cursor: move;" width="48" x="0" y="0"/>
<text fill="rgb(82, 92, 97)" font-family="verdana" font-size="8.0625" font-style="normal" font-weight="normal" style="cursor: move;" visibility="visible" x="3" y="3">
<tspan dy="1em" x="3">Langages</tspan>
</text>
<ellipse cx="51" cy="7.5" fill="rgb(204, 204, 204)" height="6" rx="3" ry="3" stroke="rgb(254, 255, 255)" stroke-width="1px" style="cursor: default;" visibility="visible" width="6"/>
<g focusable="true" height="9" preserveAspectRatio="none" transform="translate(0,3) scale(0,0.09)" width="0"/>
</g>
<g focusable="true" height="100" preserveAspectRatio="none" transform="translate(287,-132) scale(1,1)" visibility="visible" width="100">
<rect fill="rgb(252,235,192)" fill-opacity="0" height="21" rx="3.15" ry="3.15" stroke="rgb(241,163,39)" stroke-opacity="0" stroke-width="1px" width="80" x="-2" y="-3"/>
<line stroke="#495879" stroke-opacity="1" stroke-width="1px" style="cursor: move;" x1="0" x2="76" y1="15" y2="15"/>
<text fill="rgb(153, 0, 255)" font-family="verdana" font-size="8.0625" font-style="normal" font-weight="normal" style="cursor: move;" visibility="visible" x="3" y="3">
<tspan dy="1em" x="3">General Purpose</tspan>
</text>
<ellipse cx="79" cy="15" fill="rgb(191, 144, 0)" height="6" rx="3" ry="3" stroke="rgb(254, 255, 255)" stroke-width="1px" style="cursor: default;" visibility="visible" width="6"/>
<g focusable="true" height="9" preserveAspectRatio="none" transform="translate(0,3) scale(0,0.09)" width="0"/>
</g>
<g focusable="true" height="100" preserveAspectRatio="none" transform="translate(393,-169) scale(1,1)" visibility="visible" width="100">
<rect fill="rgb(252,235,192)" fill-opacity="0" height="21" rx="3.15" ry="3.15" stroke="rgb(241,163,39)" stroke-opacity="0" stroke-width="1px" width="32" x="-2" y="-3"/>
<line stroke="#495879" stroke-opacity="1" stroke-width="1px" style="cursor: move;" x1="0" x2="28" y1="15" y2="15"/>
<text fill="rgb(153, 0, 255)" font-family="verdana" font-size="8.0625" font-style="normal" font-weight="normal" style="cursor: move;" visibility="visible" x="3" y="3">
<tspan dy="1em" x="3">Rust</tspan>
</text>
<ellipse cx="3" cy="3" fill="rgb(191, 144, 0)" height="6" rx="3" ry="3" stroke="rgb(254, 255, 255)" stroke-width="1px" style="cursor: default;" visibility="hidden" width="6"/>
<g focusable="true" height="9" preserveAspectRatio="none" transform="translate(0,3) scale(0,0.09)" width="0"/>
</g>
<g focusable="true" height="100" preserveAspectRatio="none" transform="translate(393,-144) scale(1,1)" visibility="visible" width="100">
<rect fill="rgb(252,235,192)" fill-opacity="0" height="21" rx="3.15" ry="3.15" stroke="rgb(241,163,39)" stroke-opacity="0" stroke-width="1px" width="39" x="-2" y="-3"/>
<line stroke="#495879" stroke-opacity="1" stroke-width="1px" style="cursor: move;" x1="0" x2="35" y1="15" y2="15"/>
<text fill="rgb(153, 0, 255)" font-family="verdana" font-size="8.0625" font-style="normal" font-weight="normal" style="cursor: move;" visibility="visible" x="3" y="3">
<tspan dy="1em" x="3">Ocaml</tspan>
</text>
<ellipse cx="3" cy="3" fill="rgb(191, 144, 0)" height="6" rx="3" ry="3" stroke="rgb(254, 255, 255)" stroke-width="1px" style="cursor: default;" visibility="hidden" width="6"/>
<g focusable="true" height="9" preserveAspectRatio="none" transform="translate(0,3) scale(0,0.09)" width="0"/>
</g>
<g focusable="true" height="100" preserveAspectRatio="none" transform="translate(393,-119) scale(1,1)" visibility="visible" width="100">
<rect fill="rgb(252,235,192)" fill-opacity="0" height="21" rx="2.85" ry="2.85" stroke="rgb(241,163,39)" stroke-opacity="0" stroke-width="1px" width="19" x="-2" y="-3"/>
<line stroke="#495879" stroke-opacity="1" stroke-width="1px" style="cursor: move;" x1="0" x2="15" y1="15" y2="15"/>
<text fill="rgb(153, 0, 255)" font-family="verdana" font-size="8.0625" font-style="normal" font-weight="normal" style="cursor: move;" visibility="visible" x="3" y="3">
<tspan dy="1em" x="3">C</tspan>
</text>
<ellipse cx="3" cy="3" fill="rgb(191, 144, 0)" height="6" rx="3" ry="3" stroke="rgb(254, 255, 255)" stroke-width="1px" style="cursor: default;" visibility="hidden" width="6"/>
<g focusable="true" height="9" preserveAspectRatio="none" transform="translate(0,3) scale(0,0.09)" width="0"/>
</g>
<g focusable="true" height="100" preserveAspectRatio="none" transform="translate(393,-94) scale(1,1)" visibility="visible" width="100">
<rect fill="rgb(252,235,192)" fill-opacity="0" height="21" rx="3.15" ry="3.15" stroke="rgb(241,163,39)" stroke-opacity="0" stroke-width="1px" width="32" x="-2" y="-3"/>
<line stroke="#495879" stroke-opacity="1" stroke-width="1px" style="cursor: move;" x1="0" x2="28" y1="15" y2="15"/>
<text fill="rgb(153, 0, 255)" font-family="verdana" font-size="8.0625" font-style="normal" font-weight="normal" style="cursor: move;" visibility="visible" x="3" y="3">
<tspan dy="1em" x="3">Java</tspan>
</text>
<ellipse cx="3" cy="3" fill="rgb(191, 144, 0)" height="6" rx="3" ry="3" stroke="rgb(254, 255, 255)" stroke-width="1px" style="cursor: default;" visibility="hidden" width="6"/>
<g focusable="true" height="9" preserveAspectRatio="none" transform="translate(0,3) scale(0,0.09)" width="0"/>
</g>
<g focusable="true" height="100" preserveAspectRatio="none" transform="translate(287,-57) scale(1,1)" visibility="visible" width="100">
<rect fill="rgb(252,235,192)" fill-opacity="0" height="21" rx="3.15" ry="3.15" stroke="rgb(241,163,39)" stroke-opacity="0" stroke-width="1px" width="31" x="-2" y="-3"/>
<line stroke="#495879" stroke-opacity="1" stroke-width="1px" style="cursor: move;" x1="0" x2="27" y1="15" y2="15"/>
<text fill="rgb(106, 168, 79)" font-family="verdana" font-size="8.0625" font-style="normal" font-weight="normal" style="cursor: move;" visibility="visible" x="3" y="3">
<tspan dy="1em" x="3">Web</tspan>
</text>
<ellipse cx="30" cy="15" fill="rgb(191, 144, 0)" height="6" rx="3" ry="3" stroke="rgb(254, 255, 255)" stroke-width="1px" style="cursor: default;" visibility="visible" width="6"/>
<g focusable="true" height="9" preserveAspectRatio="none" transform="translate(0,3) scale(0,0.09)" width="0"/>
</g>
<g focusable="true" height="100" preserveAspectRatio="none" transform="translate(344,-69) scale(1,1)" visibility="visible" width="100">
<rect fill="rgb(252,235,192)" fill-opacity="0" height="21" rx="3.15" ry="3.15" stroke="rgb(241,163,39)" stroke-opacity="0" stroke-width="1px" width="36" x="-2" y="-3"/>
<line stroke="#495879" stroke-opacity="1" stroke-width="1px" style="cursor: move;" x1="0" x2="32" y1="15" y2="15"/>
<text fill="rgb(106, 168, 79)" font-family="verdana" font-size="8.0625" font-style="normal" font-weight="normal" style="cursor: move;" visibility="visible" x="3" y="3">
<tspan dy="1em" x="3">HTML</tspan>
</text>
<ellipse cx="3" cy="3" fill="rgb(191, 144, 0)" height="6" rx="3" ry="3" stroke="rgb(254, 255, 255)" stroke-width="1px" style="cursor: default;" visibility="hidden" width="6"/>
<g focusable="true" height="9" preserveAspectRatio="none" transform="translate(0,3) scale(0,0.09)" width="0"/>
</g>
<g focusable="true" height="100" preserveAspectRatio="none" transform="translate(344,-44) scale(1,1)" visibility="visible" width="100">
<rect fill="rgb(252,235,192)" fill-opacity="0" height="21" rx="3.15" ry="3.15" stroke="rgb(241,163,39)" stroke-opacity="0" stroke-width="1px" width="30" x="-2" y="-3"/>
<line stroke="#495879" stroke-opacity="1" stroke-width="1px" style="cursor: move;" x1="0" x2="26" y1="15" y2="15"/>
<text fill="rgb(106, 168, 79)" font-family="verdana" font-size="8.0625" font-style="normal" font-weight="normal" style="cursor: move;" visibility="visible" x="3" y="3">
<tspan dy="1em" x="3">CSS</tspan>
</text>
<ellipse cx="3" cy="3" fill="rgb(191, 144, 0)" height="6" rx="3" ry="3" stroke="rgb(254, 255, 255)" stroke-width="1px" style="cursor: default;" visibility="hidden" width="6"/>
<g focusable="true" height="9" preserveAspectRatio="none" transform="translate(0,3) scale(0,0.09)" width="0"/>
</g>
<g focusable="true" height="100" preserveAspectRatio="none" transform="translate(287,-19) scale(1,1)" visibility="visible" width="100">
<rect fill="rgb(252,235,192)" fill-opacity="0" height="21" rx="3.15" ry="3.15" stroke="rgb(241,163,39)" stroke-opacity="0" stroke-width="1px" width="36" x="-2" y="-3"/>
<line stroke="#495879" stroke-opacity="1" stroke-width="1px" style="cursor: move;" x1="0" x2="32" y1="15" y2="15"/>
<text fill="rgb(230, 145, 56)" font-family="verdana" font-size="8.0625" font-style="normal" font-weight="normal" style="cursor: move;" visibility="visible" x="3" y="3">
<tspan dy="1em" x="3">Autre</tspan>
</text>
<ellipse cx="35" cy="15" fill="rgb(191, 144, 0)" height="6" rx="3" ry="3" stroke="rgb(254, 255, 255)" stroke-width="1px" style="cursor: default;" visibility="visible" width="6"/>
<g focusable="true" height="9" preserveAspectRatio="none" transform="translate(0,3) scale(0,0.09)" width="0"/>
</g>
<g focusable="true" height="100" preserveAspectRatio="none" transform="translate(349,-19) scale(1,1)" visibility="visible" width="100">
<rect fill="rgb(252,235,192)" fill-opacity="0" height="21" rx="3.15" ry="3.15" stroke="rgb(241,163,39)" stroke-opacity="0" stroke-width="1px" width="30" x="-2" y="-3"/>
<line stroke="#495879" stroke-opacity="1" stroke-width="1px" style="cursor: move;" x1="0" x2="26" y1="15" y2="15"/>
<text fill="rgb(230, 145, 56)" font-family="verdana" font-size="8.0625" font-style="normal" font-weight="normal" style="cursor: move;" visibility="visible" x="3" y="3">
<tspan dy="1em" x="3">SQL</tspan>
</text>
<ellipse cx="3" cy="3" fill="rgb(191, 144, 0)" height="6" rx="3" ry="3" stroke="rgb(254, 255, 255)" stroke-width="1px" style="cursor: default;" visibility="hidden" width="6"/>
<g focusable="true" height="9" preserveAspectRatio="none" transform="translate(0,3) scale(0,0.09)" width="0"/>
</g>
<g focusable="true" height="100" preserveAspectRatio="none" transform="translate(287,30) scale(1,1)" visibility="visible" width="100">
<rect fill="rgb(252,235,192)" fill-opacity="0" height="21" rx="3.15" ry="3.15" stroke="rgb(241,163,39)" stroke-opacity="0" stroke-width="1px" width="60" x="-2" y="-3"/>
<line stroke="#495879" stroke-opacity="1" stroke-width="1px" style="cursor: move;" x1="0" x2="56" y1="15" y2="15"/>
<text fill="rgb(166, 77, 121)" font-family="verdana" font-size="8.0625" font-style="normal" font-weight="normal" style="cursor: move;" visibility="visible" x="3" y="3">
<tspan dy="1em" x="3">Paradigmes</tspan>
</text>
<ellipse cx="59" cy="15" fill="rgb(191, 144, 0)" height="6" rx="3" ry="3" stroke="rgb(254, 255, 255)" stroke-width="1px" style="cursor: default;" visibility="visible" width="6"/>
<g focusable="true" height="9" preserveAspectRatio="none" transform="translate(0,3) scale(0,0.09)" width="0"/>
</g>
<g focusable="true" height="100" preserveAspectRatio="none" transform="translate(373,5) scale(1,1)" visibility="visible" width="100">
<rect fill="rgb(252,235,192)" fill-opacity="0" height="21" rx="3.15" ry="3.15" stroke="rgb(241,163,39)" stroke-opacity="0" stroke-width="1px" width="60" x="-2" y="-3"/>
<line stroke="#495879" stroke-opacity="1" stroke-width="1px" style="cursor: move;" x1="0" x2="56" y1="15" y2="15"/>
<text fill="rgb(166, 77, 121)" font-family="verdana" font-size="8.0625" font-style="normal" font-weight="normal" style="cursor: move;" visibility="visible" x="3" y="3">
<tspan dy="1em" x="3">Fonctionnel</tspan>
</text>
<ellipse cx="3" cy="3" fill="rgb(191, 144, 0)" height="6" rx="3" ry="3" stroke="rgb(254, 255, 255)" stroke-width="1px" style="cursor: default;" visibility="hidden" width="6"/>
<g focusable="true" height="9" preserveAspectRatio="none" transform="translate(0,3) scale(0,0.09)" width="0"/>
</g>
<g focusable="true" height="100" preserveAspectRatio="none" transform="translate(373,30) scale(1,1)" visibility="visible" width="100">
<rect fill="rgb(252,235,192)" fill-opacity="0" height="21" rx="3.15" ry="3.15" stroke="rgb(241,163,39)" stroke-opacity="0" stroke-width="1px" width="51" x="-2" y="-3"/>
<line stroke="#495879" stroke-opacity="1" stroke-width="1px" style="cursor: move;" x1="0" x2="47" y1="15" y2="15"/>
<text fill="rgb(166, 77, 121)" font-family="verdana" font-size="8.0625" font-style="normal" font-weight="normal" style="cursor: move;" visibility="visible" x="3" y="3">
<tspan dy="1em" x="3">Impératif</tspan>
</text>
<ellipse cx="3" cy="3" fill="rgb(191, 144, 0)" height="6" rx="3" ry="3" stroke="rgb(254, 255, 255)" stroke-width="1px" style="cursor: default;" visibility="hidden" width="6"/>
<g focusable="true" height="9" preserveAspectRatio="none" transform="translate(0,3) scale(0,0.09)" width="0"/>
</g>
<g focusable="true" height="100" preserveAspectRatio="none" transform="translate(373,55) scale(1,1)" visibility="visible" width="100">
<rect fill="rgb(252,235,192)" fill-opacity="0" height="21" rx="3.15" ry="3.15" stroke="rgb(241,163,39)" stroke-opacity="0" stroke-width="1px" width="68" x="-2" y="-3"/>
<line stroke="#495879" stroke-opacity="1" stroke-width="1px" style="cursor: move;" x1="0" x2="64" y1="15" y2="15"/>
<text fill="rgb(166, 77, 121)" font-family="verdana" font-size="8.0625" font-style="normal" font-weight="normal" style="cursor: move;" visibility="visible" x="3" y="3">
<tspan dy="1em" x="3">Orienté Objet</tspan>
</text>
<ellipse cx="3" cy="3" fill="rgb(191, 144, 0)" height="6" rx="3" ry="3" stroke="rgb(254, 255, 255)" stroke-width="1px" style="cursor: default;" visibility="hidden" width="6"/>
<g focusable="true" height="9" preserveAspectRatio="none" transform="translate(0,3) scale(0,0.09)" width="0"/>
</g>
<g focusable="true" height="100" preserveAspectRatio="none" transform="translate(209,92) scale(1,1)" visibility="visible" width="100">
<rect fill="rgb(252,235,192)" fill-opacity="0" height="21" rx="3.15" ry="3.15" stroke="rgb(241,163,39)" stroke-opacity="0" stroke-width="1px" width="48" x="-2" y="-3"/>
<rect fill="rgb(204, 204, 204)" height="15" rx="6.75" ry="6.75" stroke="rgb(254, 255, 255)" stroke-width="2px" style="cursor: move;" width="44" x="0" y="0"/>
<text fill="rgb(82,92,97)" font-family="verdana" font-size="8.0625" font-style="normal" font-weight="normal" style="cursor: move;" visibility="visible" x="3" y="3">
<tspan dy="1em" x="3">Logiciels</tspan>
</text>
<ellipse cx="47" cy="7.5" fill="rgb(204, 204, 204)" height="6" rx="3" ry="3" stroke="rgb(254, 255, 255)" stroke-width="1px" style="cursor: default;" visibility="visible" width="6"/>
<g focusable="true" height="9" preserveAspectRatio="none" transform="translate(0,3) scale(0,0.09)" width="0"/>
</g>
<g focusable="true" height="100" preserveAspectRatio="none" transform="translate(283,80) scale(1,1)" visibility="visible" width="100">
<rect fill="rgb(252,235,192)" fill-opacity="0" height="21" rx="3.15" ry="3.15" stroke="rgb(241,163,39)" stroke-opacity="0" stroke-width="1px" width="41" x="-2" y="-3"/>
<line stroke="#495879" stroke-opacity="1" stroke-width="1px" style="cursor: move;" x1="0" x2="37" y1="15" y2="15"/>
<text fill="rgb(111, 168, 220)" font-family="verdana" font-size="8.0625" font-style="normal" font-weight="normal" style="cursor: move;" visibility="visible" x="3" y="3">
<tspan dy="1em" x="3">Eclipse</tspan>
</text>
<ellipse cx="3" cy="3" fill="rgb(191, 144, 0)" height="6" rx="3" ry="3" stroke="rgb(254, 255, 255)" stroke-width="1px" style="cursor: default;" visibility="hidden" width="6"/>
<g focusable="true" height="9" preserveAspectRatio="none" transform="translate(0,3) scale(0,0.09)" width="0"/>
</g>
<g focusable="true" height="100" preserveAspectRatio="none" transform="translate(283,105) scale(1,1)" visibility="visible" width="100">
<rect fill="rgb(252,235,192)" fill-opacity="0" height="21" rx="3.15" ry="3.15" stroke="rgb(241,163,39)" stroke-opacity="0" stroke-width="1px" width="65" x="-2" y="-3"/>
<line stroke="#495879" stroke-opacity="1" stroke-width="1px" style="cursor: move;" x1="0" x2="61" y1="15" y2="15"/>
<text fill="rgb(111, 168, 220)" font-family="verdana" font-size="8.0625" font-style="normal" font-weight="normal" style="cursor: move;" visibility="visible" x="3" y="3">
<tspan dy="1em" x="3">Emacs / VIM</tspan>
</text>
<ellipse cx="3" cy="3" fill="rgb(191, 144, 0)" height="6" rx="3" ry="3" stroke="rgb(254, 255, 255)" stroke-width="1px" style="cursor: default;" visibility="hidden" width="6"/>
<g focusable="true" height="9" preserveAspectRatio="none" transform="translate(0,3) scale(0,0.09)" width="0"/>
</g>
<g focusable="true" height="100" preserveAspectRatio="none" transform="translate(209,142) scale(1,1)" visibility="visible" width="100">
<rect fill="rgb(252,235,192)" fill-opacity="0" height="21" rx="3.15" ry="3.15" stroke="rgb(241,163,39)" stroke-opacity="0" stroke-width="1px" width="66" x="-2" y="-3"/>
<rect fill="rgb(204, 204, 204)" height="15" rx="6.75" ry="6.75" stroke="rgb(254, 255, 255)" stroke-width="2px" style="cursor: move;" width="62" x="0" y="0"/>
<text fill="rgb(82,92,97)" font-family="verdana" font-size="8.0625" font-style="normal" font-weight="normal" style="cursor: move;" visibility="visible" x="3" y="3">
<tspan dy="1em" x="3">Technologies</tspan>
</text>
<ellipse cx="65" cy="7.5" fill="rgb(204, 204, 204)" height="6" rx="3" ry="3" stroke="rgb(254, 255, 255)" stroke-width="1px" style="cursor: default;" visibility="visible" width="6"/>
<g focusable="true" height="9" preserveAspectRatio="none" transform="translate(0,3) scale(0,0.09)" width="0"/>
</g>
<g focusable="true" height="100" preserveAspectRatio="none" transform="translate(301,130) scale(1,1)" visibility="visible" width="100">
<rect fill="rgb(252,235,192)" fill-opacity="0" height="21" rx="3.15" ry="3.15" stroke="rgb(241,163,39)" stroke-opacity="0" stroke-width="1px" width="67" x="-2" y="-3"/>
<line stroke="#495879" stroke-opacity="1" stroke-width="1px" style="cursor: move;" x1="0" x2="63" y1="15" y2="15"/>
<text fill="rgb(204, 0, 0)" font-family="verdana" font-size="8.0625" font-style="normal" font-weight="normal" style="cursor: move;" visibility="visible" x="3" y="3">
<tspan dy="1em" x="3">Compilateurs</tspan>
</text>
<ellipse cx="66" cy="15" fill="rgb(191, 144, 0)" height="6" rx="3" ry="3" stroke="rgb(254, 255, 255)" stroke-width="1px" style="cursor: default;" visibility="visible" width="6"/>
<g focusable="true" height="9" preserveAspectRatio="none" transform="translate(0,3) scale(0,0.09)" width="0"/>
</g>
<g focusable="true" height="100" preserveAspectRatio="none" transform="translate(394,130) scale(1,1)" visibility="visible" width="100">
<rect fill="rgb(252,235,192)" fill-opacity="0" height="21" rx="3.15" ry="3.15" stroke="rgb(241,163,39)" stroke-opacity="0" stroke-width="1px" width="67" x="-2" y="-3"/>
<line stroke="#495879" stroke-opacity="1" stroke-width="1px" style="cursor: move;" x1="0" x2="63" y1="15" y2="15"/>
<text fill="rgb(204, 0, 0)" font-family="verdana" font-size="8.0625" font-style="normal" font-weight="normal" style="cursor: move;" visibility="visible" x="3" y="3">
<tspan dy="1em" x="3">Interpreteurs</tspan>
</text>
<ellipse cx="3" cy="3" fill="rgb(191, 144, 0)" height="6" rx="3" ry="3" stroke="rgb(254, 255, 255)" stroke-width="1px" style="cursor: default;" visibility="hidden" width="6"/>
<g focusable="true" height="9" preserveAspectRatio="none" transform="translate(0,3) scale(0,0.09)" width="0"/>
</g>
<g focusable="true" height="100" preserveAspectRatio="none" transform="translate(301,155) scale(1,1)" visibility="visible" width="100">
<rect fill="rgb(252,235,192)" fill-opacity="0" height="21" rx="3.15" ry="3.15" stroke="rgb(241,163,39)" stroke-opacity="0" stroke-width="1px" width="46" x="-2" y="-3"/>
<line stroke="#495879" stroke-opacity="1" stroke-width="1px" style="cursor: move;" x1="0" x2="42" y1="15" y2="15"/>
<text fill="rgb(204, 0, 0)" font-family="verdana" font-size="8.0625" font-style="normal" font-weight="normal" style="cursor: move;" visibility="visible" x="3" y="3">
<tspan dy="1em" x="3">OpenGL</tspan>
</text>
<ellipse cx="3" cy="3" fill="rgb(191, 144, 0)" height="6" rx="3" ry="3" stroke="rgb(254, 255, 255)" stroke-width="1px" style="cursor: default;" visibility="hidden" width="6"/>
<g focusable="true" height="9" preserveAspectRatio="none" transform="translate(0,3) scale(0,0.09)" width="0"/>
</g>
<g focusable="true" height="100" preserveAspectRatio="none" transform="translate(-159,-109) scale(1,1)" visibility="visible" width="100">
<rect fill="rgb(252,235,192)" fill-opacity="0" height="24" rx="3.5999999999999996" ry="3.5999999999999996" stroke="rgb(241,163,39)" stroke-opacity="0" stroke-width="1px" style="cursor: move;" width="70" x="-2" y="-3"/>
<rect fill="rgb(255, 217, 102)" height="18" rx="2.6999999999999997" ry="2.6999999999999997" stroke="rgb(254, 255, 255)" stroke-width="2px" style="cursor: move;" width="66" x="0" y="0"/>
<text fill="rgb(82,92,97)" font-family="verdana" font-size="10.75" font-style="normal" font-weight="bold" style="cursor: move;" visibility="visible" x="3" y="3">
<tspan dy="1em" x="3">Générales</tspan>
</text>
<ellipse cx="-3" cy="9" fill="rgb(255, 217, 102)" height="6" rx="3" ry="3" stroke="rgb(254, 255, 255)" stroke-width="1px" style="cursor: default;" visibility="visible" width="6"/>
<g focusable="true" height="12" preserveAspectRatio="none" transform="translate(0,3) scale(0,0.12)" width="0"/>
</g>
<g focusable="true" height="100" preserveAspectRatio="none" transform="translate(-223,-119) scale(1,1)" visibility="visible" width="100">
<rect fill="rgb(252,235,192)" fill-opacity="0" height="21" rx="3.15" ry="3.15" stroke="rgb(241,163,39)" stroke-opacity="0" stroke-width="1px" style="cursor: move;" width="38" x="-2" y="-3"/>
<line stroke="#495879" stroke-opacity="1" stroke-width="1px" style="cursor: move;" x1="0" x2="34" y1="15" y2="15"/>
<text fill="rgb(106, 168, 79)" font-family="verdana" font-size="8.0625" font-style="normal" font-weight="normal" style="cursor: move;" visibility="visible" x="3" y="3">
<tspan dy="1em" x="3">Maths</tspan>
</text>
<ellipse cx="-3" cy="15" fill="rgb(191, 144, 0)" height="6" rx="3" ry="3" stroke="rgb(254, 255, 255)" stroke-width="1px" style="cursor: default;" visibility="visible" width="6"/>
<g focusable="true" height="9" preserveAspectRatio="none" transform="translate(0,3) scale(0,0.09)" width="0"/>
</g>
<g focusable="true" height="100" preserveAspectRatio="none" transform="translate(-301,-119) scale(1,1)" visibility="visible" width="100">
<rect fill="rgb(252,235,192)" fill-opacity="0" height="21" rx="3.15" ry="3.15" stroke="rgb(241,163,39)" stroke-opacity="0" stroke-width="1px" style="cursor: move;" width="52" x="-2" y="-3"/>
<line stroke="#495879" stroke-opacity="1" stroke-width="1px" style="cursor: move;" x1="0" x2="48" y1="15" y2="15"/>
<text fill="rgb(106, 168, 79)" font-family="verdana" font-size="8.0625" font-style="normal" font-weight="normal" style="cursor: move;" visibility="visible" x="3" y="3">
<tspan dy="1em" x="3">Langages</tspan>
</text>
<g focusable="true" height="9" preserveAspectRatio="none" transform="translate(0,3) scale(0,0.09)" width="0"/>
<ellipse cx="3" cy="3" fill="rgb(191, 144, 0)" height="6" rx="3" ry="3" stroke="rgb(254, 255, 255)" stroke-width="1px" style="cursor: default;" visibility="hidden" width="6"/>
</g>
<g focusable="true" height="100" preserveAspectRatio="none" transform="translate(-295,-94) scale(1,1)" visibility="visible" width="100">
<rect fill="rgb(252,235,192)" fill-opacity="0" height="21" rx="3.15" ry="3.15" stroke="rgb(241,163,39)" stroke-opacity="0" stroke-width="1px" style="cursor: move;" width="47" x="-2" y="-3"/>
<line stroke="#495879" stroke-opacity="1" stroke-width="1px" style="cursor: move;" x1="0" x2="43" y1="15" y2="15"/>
<text fill="rgb(106, 168, 79)" font-family="verdana" font-size="8.0625" font-style="normal" font-weight="normal" style="cursor: move;" visibility="visible" x="3" y="3">
<tspan dy="1em" x="3">Graphes</tspan>
</text>
<ellipse cx="3" cy="3" fill="rgb(191, 144, 0)" height="6" rx="3" ry="3" stroke="rgb(254, 255, 255)" stroke-width="1px" style="cursor: default;" visibility="hidden" width="6"/>
<g focusable="true" height="9" preserveAspectRatio="none" transform="translate(0,3) scale(0,0.09)" width="0"/>
</g>
<g focusable="true" height="100" preserveAspectRatio="none" transform="translate(-227,-69) scale(1,1)" visibility="visible" width="100">
<rect fill="rgb(252,235,192)" fill-opacity="0" height="21" rx="3.15" ry="3.15" stroke="rgb(241,163,39)" stroke-opacity="0" stroke-width="1px" width="43" x="-2" y="-3"/>
<line stroke="#495879" stroke-opacity="1" stroke-width="1px" style="cursor: move;" x1="0" x2="39" y1="15" y2="15"/>
<text fill="rgb(103, 78, 167)" font-family="verdana" font-size="8.0625" font-style="normal" font-weight="normal" style="cursor: move;" visibility="visible" x="3" y="3">
<tspan dy="1em" x="3">Anglais</tspan>
</text>
<ellipse cx="3" cy="3" fill="rgb(191, 144, 0)" height="6" rx="3" ry="3" stroke="rgb(254, 255, 255)" stroke-width="1px" style="cursor: default;" visibility="hidden" width="6"/>
<g focusable="true" height="9" preserveAspectRatio="none" transform="translate(0,3) scale(0,0.09)" width="0"/>
</g>
<g focusable="true" height="100" preserveAspectRatio="none" transform="translate(-147,-34) scale(1,1)" visibility="visible" width="100">
<rect fill="rgb(252,235,192)" fill-opacity="0" height="24" rx="3.5999999999999996" ry="3.5999999999999996" stroke="rgb(241,163,39)" stroke-opacity="0" stroke-width="1px" style="cursor: move;" width="59" x="-2" y="-3"/>
<rect fill="rgb(255, 217, 102)" height="18" rx="2.6999999999999997" ry="2.6999999999999997" stroke="rgb(254, 255, 255)" stroke-width="2px" style="cursor: move;" width="55" x="0" y="0"/>
<text fill="rgb(82,92,97)" font-family="verdana" font-size="10.75" font-style="normal" font-weight="bold" style="cursor: move;" visibility="visible" x="3" y="3">
<tspan dy="1em" x="3">Qualités</tspan>
</text>
<ellipse cx="-3" cy="9" fill="rgb(255, 217, 102)" height="6" rx="3" ry="3" stroke="rgb(254, 255, 255)" stroke-width="1px" style="cursor: default;" visibility="visible" width="6"/>
<g focusable="true" height="12" preserveAspectRatio="none" transform="translate(0,3) scale(0,0.12)" width="0"/>
</g>
<g focusable="true" height="100" preserveAspectRatio="none" transform="translate(-222,-44) scale(1,1)" visibility="visible" width="100">
<rect fill="rgb(252,235,192)" fill-opacity="0" height="21" rx="3.15" ry="3.15" stroke="rgb(241,163,39)" stroke-opacity="0" stroke-width="1px" width="49" x="-2" y="-3"/>
<line stroke="#495879" stroke-opacity="1" stroke-width="1px" style="cursor: move;" x1="0" x2="45" y1="15" y2="15"/>
<text fill="rgb(230, 145, 56)" font-family="verdana" font-size="8.0625" font-style="normal" font-weight="normal" style="cursor: move;" visibility="visible" x="3" y="3">
<tspan dy="1em" x="3">Curiosité</tspan>
</text>
<ellipse cx="3" cy="3" fill="rgb(191, 144, 0)" height="6" rx="3" ry="3" stroke="rgb(254, 255, 255)" stroke-width="1px" style="cursor: default;" visibility="hidden" width="6"/>
<g focusable="true" height="9" preserveAspectRatio="none" transform="translate(0,3) scale(0,0.09)" width="0"/>
</g>
<g focusable="true" height="100" preserveAspectRatio="none" transform="translate(-375,30) scale(1,1)" visibility="visible" width="100">
<rect fill="rgb(252,235,192)" fill-opacity="0" height="21" rx="3.15" ry="3.15" stroke="rgb(241,163,39)" stroke-opacity="0" stroke-width="1px" style="cursor: move;" width="37" x="-2" y="-3"/>
<line stroke="#495879" stroke-opacity="1" stroke-width="1px" style="cursor: move;" x1="0" x2="33" y1="15" y2="15"/>
<text fill="rgb(153, 0, 255)" font-family="verdana" font-size="8.0625" font-style="normal" font-weight="normal" style="cursor: move;" visibility="visible" x="3" y="3">
<tspan dy="1em" x="3">Social</tspan>
</text>
<g focusable="true" height="9" preserveAspectRatio="none" transform="translate(0,3) scale(0,0.09)" width="0"/>
<ellipse cx="3" cy="3" fill="rgb(191, 144, 0)" height="6" rx="3" ry="3" stroke="rgb(254, 255, 255)" stroke-width="1px" style="cursor: default;" visibility="hidden" width="6"/>
</g>
<g focusable="true" height="100" preserveAspectRatio="none" transform="translate(-391,55) scale(1,1)" visibility="visible" width="100">
<rect fill="rgb(252,235,192)" fill-opacity="0" height="21" rx="3.15" ry="3.15" stroke="rgb(241,163,39)" stroke-opacity="0" stroke-width="1px" style="cursor: move;" width="53" x="-2" y="-3"/>
<line stroke="#495879" stroke-opacity="1" stroke-width="1px" style="cursor: move;" x1="0" x2="49" y1="15" y2="15"/>
<text fill="rgb(153, 0, 255)" font-family="verdana" font-size="8.0625" font-style="normal" font-weight="normal" style="cursor: move;" visibility="visible" x="3" y="3">
<tspan dy="1em" x="3">A l'écoute</tspan>
</text>
<g focusable="true" height="9" preserveAspectRatio="none" transform="translate(0,3) scale(0,0.09)" width="0"/>
<ellipse cx="3" cy="3" fill="rgb(191, 144, 0)" height="6" rx="3" ry="3" stroke="rgb(254, 255, 255)" stroke-width="1px" style="cursor: default;" visibility="hidden" width="6"/>
</g>
<g focusable="true" height="100" preserveAspectRatio="none" transform="translate(-383,80) scale(1,1)" visibility="visible" width="100">
<rect fill="rgb(252,235,192)" fill-opacity="0" height="21" rx="3.15" ry="3.15" stroke="rgb(241,163,39)" stroke-opacity="0" stroke-width="1px" style="cursor: move;" width="44" x="-2" y="-3"/>
<line stroke="#495879" stroke-opacity="1" stroke-width="1px" style="cursor: move;" x1="0" x2="40" y1="15" y2="15"/>
<text fill="rgb(153, 0, 255)" font-family="verdana" font-size="8.0625" font-style="normal" font-weight="normal" style="cursor: move;" visibility="visible" x="3" y="3">
<tspan dy="1em" x="3">Attentif</tspan>
</text>
<g focusable="true" height="9" preserveAspectRatio="none" transform="translate(0,3) scale(0,0.09)" width="0"/>
<ellipse cx="3" cy="3" fill="rgb(191, 144, 0)" height="6" rx="3" ry="3" stroke="rgb(254, 255, 255)" stroke-width="1px" style="cursor: default;" visibility="hidden" width="6"/>
</g>
<g focusable="true" height="100" preserveAspectRatio="none" transform="translate(-228,-19) scale(1,1)" visibility="visible" width="100">
<rect fill="rgb(252,235,192)" fill-opacity="0" height="21" rx="3.15" ry="3.15" stroke="rgb(241,163,39)" stroke-opacity="0" stroke-width="1px" width="54" x="-2" y="-3"/>
<line stroke="#495879" stroke-opacity="1" stroke-width="1px" style="cursor: move;" x1="0" x2="50" y1="15" y2="15"/>
<text fill="rgb(230, 145, 56)" font-family="verdana" font-size="8.0625" font-style="normal" font-weight="normal" style="cursor: move;" visibility="visible" x="3" y="3">
<tspan dy="1em" x="3">Ambitieux</tspan>
</text>
<ellipse cx="3" cy="3" fill="rgb(191, 144, 0)" height="6" rx="3" ry="3" stroke="rgb(254, 255, 255)" stroke-width="1px" style="cursor: default;" visibility="hidden" width="6"/>
<g focusable="true" height="9" preserveAspectRatio="none" transform="translate(0,3) scale(0,0.09)" width="0"/>
</g>
<g focusable="true" height="100" preserveAspectRatio="none" transform="translate(-203,66) scale(1,1)" visibility="visible" width="100">
<rect fill="rgb(252,235,192)" fill-opacity="0" height="24" rx="3.5999999999999996" ry="3.5999999999999996" stroke="rgb(241,163,39)" stroke-opacity="0" stroke-width="1px" style="cursor: move;" width="114" x="-2" y="-3"/>
<rect fill="rgb(255, 217, 102)" height="18" rx="2.6999999999999997" ry="2.6999999999999997" stroke="rgb(254, 255, 255)" stroke-width="2px" style="cursor: move;" width="110" x="0" y="0"/>
<text fill="rgb(82,92,97)" font-family="verdana" font-size="10.75" font-style="normal" font-weight="bold" style="cursor: move;" visibility="visible" x="3" y="3">
<tspan dy="1em" x="3">Gestion de projet</tspan>
</text>
<ellipse cx="-3" cy="9" fill="rgb(255, 217, 102)" height="6" rx="3" ry="3" stroke="rgb(254, 255, 255)" stroke-width="1px" style="cursor: default;" visibility="visible" width="6"/>
<g focusable="true" height="12" preserveAspectRatio="none" transform="translate(0,3) scale(0,0.12)" width="0"/>
</g>
<g focusable="true" height="100" preserveAspectRatio="none" transform="translate(-299,5) scale(1,1)" visibility="visible" width="100">
<rect fill="rgb(252,235,192)" fill-opacity="0" height="21" rx="3.15" ry="3.15" stroke="rgb(241,163,39)" stroke-opacity="0" stroke-width="1px" style="cursor: move;" width="70" x="-2" y="-3"/>
<line stroke="#495879" stroke-opacity="1" stroke-width="1px" style="cursor: move;" x1="0" x2="66" y1="15" y2="15"/>
<text fill="rgb(0, 0, 255)" font-family="verdana" font-size="8.0625" font-style="normal" font-weight="normal" style="cursor: move;" visibility="visible" x="3" y="3">
<tspan dy="1em" x="3">Brainstorming</tspan>
</text>
<ellipse cx="3" cy="3" fill="rgb(191, 144, 0)" height="6" rx="3" ry="3" stroke="rgb(254, 255, 255)" stroke-width="1px" style="cursor: default;" visibility="hidden" width="6"/>
<g focusable="true" height="9" preserveAspectRatio="none" transform="translate(0,3) scale(0,0.09)" width="0"/>
</g>
<g focusable="true" height="100" preserveAspectRatio="none" transform="translate(-313,55) scale(1,1)" visibility="visible" width="100">
<rect fill="rgb(252,235,192)" fill-opacity="0" height="21" rx="3.15" ry="3.15" stroke="rgb(241,163,39)" stroke-opacity="0" stroke-width="1px" style="cursor: move;" width="84" x="-2" y="-3"/>
<line stroke="#495879" stroke-opacity="1" stroke-width="1px" style="cursor: move;" x1="0" x2="80" y1="15" y2="15"/>
<text fill="rgb(153, 0, 255)" font-family="verdana" font-size="8.0625" font-style="normal" font-weight="normal" style="cursor: move;" visibility="visible" x="3" y="3">
<tspan dy="1em" x="3">Travail en équipe</tspan>
</text>
<ellipse cx="-3" cy="15" fill="rgb(191, 144, 0)" height="6" rx="3" ry="3" stroke="rgb(254, 255, 255)" stroke-width="1px" style="cursor: default;" visibility="visible" width="6"/>
<g focusable="true" height="9" preserveAspectRatio="none" transform="translate(0,3) scale(0,0.09)" width="0"/>
</g>
<g focusable="true" height="100" preserveAspectRatio="none" transform="translate(-293,117) scale(1,1)" visibility="visible" width="100">
<rect fill="rgb(252,235,192)" fill-opacity="0" height="21" rx="3.15" ry="3.15" stroke="rgb(241,163,39)" stroke-opacity="0" stroke-width="1px" style="cursor: move;" width="65" x="-2" y="-3"/>
<line stroke="#495879" stroke-opacity="1" stroke-width="1px" style="cursor: move;" x1="0" x2="61" y1="15" y2="15"/>
<text fill="rgb(255, 0, 255)" font-family="verdana" font-size="8.0625" font-style="normal" font-weight="normal" style="cursor: move;" visibility="visible" x="3" y="3">
<tspan dy="1em" x="3">Organisation</tspan>
</text>
<ellipse cx="-3" cy="15" fill="rgb(191, 144, 0)" height="6" rx="3" ry="3" stroke="rgb(254, 255, 255)" stroke-width="1px" style="cursor: default;" visibility="visible" width="6"/>
<g focusable="true" height="9" preserveAspectRatio="none" transform="translate(0,3) scale(0,0.09)" width="0"/>
</g>
<g focusable="true" height="100" preserveAspectRatio="none" transform="translate(-370,105) scale(1,1)" visibility="visible" width="100">
<rect fill="rgb(252,235,192)" fill-opacity="0" height="21" rx="3.15" ry="3.15" stroke="rgb(241,163,39)" stroke-opacity="0" stroke-width="1px" style="cursor: move;" width="51" x="-2" y="-3"/>
<line stroke="#495879" stroke-opacity="1" stroke-width="1px" style="cursor: move;" x1="0" x2="47" y1="15" y2="15"/>
<text fill="rgb(255, 0, 255)" font-family="verdana" font-size="8.0625" font-style="normal" font-weight="normal" style="cursor: move;" visibility="visible" x="3" y="3">
<tspan dy="1em" x="3">Réunions</tspan>
</text>
<g focusable="true" height="9" preserveAspectRatio="none" transform="translate(0,3) scale(0,0.09)" width="0"/>
<ellipse cx="3" cy="3" fill="rgb(191, 144, 0)" height="6" rx="3" ry="3" stroke="rgb(254, 255, 255)" stroke-width="1px" style="cursor: default;" visibility="hidden" width="6"/>
</g>
<g focusable="true" height="100" preserveAspectRatio="none" transform="translate(-390,130) scale(1,1)" visibility="visible" width="100">
<rect fill="rgb(252,235,192)" fill-opacity="0" height="21" rx="3.15" ry="3.15" stroke="rgb(241,163,39)" stroke-opacity="0" stroke-width="1px" style="cursor: move;" width="71" x="-2" y="-3"/>
<line stroke="#495879" stroke-opacity="1" stroke-width="1px" style="cursor: move;" x1="0" x2="67" y1="15" y2="15"/>
<text fill="rgb(255, 0, 255)" font-family="verdana" font-size="8.0625" font-style="normal" font-weight="normal" style="cursor: move;" visibility="visible" x="3" y="3">
<tspan dy="1em" x="3">Méthode Agile</tspan>
</text>
<g focusable="true" height="9" preserveAspectRatio="none" transform="translate(0,3) scale(0,0.09)" width="0"/>
<ellipse cx="3" cy="3" fill="rgb(191, 144, 0)" height="6" rx="3" ry="3" stroke="rgb(254, 255, 255)" stroke-width="1px" style="cursor: default;" visibility="hidden" width="6"/>
</g>
<g focusable="true" height="100" preserveAspectRatio="none" transform="translate(-293,-144) scale(1,1)" visibility="visible" width="100">
<rect fill="rgb(252,235,192)" fill-opacity="0" height="21" rx="3.15" ry="3.15" stroke="rgb(241,163,39)" stroke-opacity="0" stroke-width="1px" style="cursor: move;" width="45" x="-2" y="-3"/>
<line stroke="#495879" stroke-opacity="1" stroke-width="1px" style="cursor: move;" x1="0" x2="41" y1="15" y2="15"/>
<text fill="rgb(106, 168, 79)" font-family="verdana" font-size="8.0625" font-style="normal" font-weight="normal" style="cursor: move;" visibility="visible" x="3" y="3">
<tspan dy="1em" x="3">Analyse</tspan>
</text>
<g focusable="true" height="9" preserveAspectRatio="none" transform="translate(0,3) scale(0,0.09)" width="0"/>
<ellipse cx="3" cy="3" fill="rgb(191, 144, 0)" height="6" rx="3" ry="3" stroke="rgb(254, 255, 255)" stroke-width="1px" style="cursor: default;" visibility="hidden" width="6"/>
</g>
<rect fill="#CC0033" fill-opacity="0.4" height="6" rx="0" ry="0" stroke="#FF9933" stroke-opacity="0.4" stroke-width="1px" visibility="hidden" width="50" x="-316" y="-165"/>
</svg>
